<svg width="22" height="22" viewBox="0 0 22 22" fill="none" xmlns="http://www.w3.org/2000/svg">
    <path d="M3 12.1156L4.57465 18.4142C4.61893 18.5913 4.64107 18.6799 4.66727 18.7573C4.92317 19.5128 5.60352 20.044 6.39852 20.109C6.4799 20.1156 6.5712 20.1156 6.75379 20.1156C6.98244 20.1156 7.09677 20.1156 7.19308 20.1063C8.145 20.014 8.89834 19.2606 8.99066 18.3087C9 18.2124 9 18.0981 9 17.8694V3.61563M17.5 11.6156C19.433 11.6156 21 10.0486 21 8.11563C21 6.18264 19.433 4.61563 17.5 4.61563M9.25 3.61563H5.5C3.01472 3.61563 0.999998 5.63035 1 8.11564C1 10.6009 3.01472 12.6156 5.5 12.6156H9.25C11.0164 12.6156 13.1772 13.5625 14.8443 14.4713C15.8168 15.0014 16.3031 15.2665 16.6216 15.2275C16.9169 15.1913 17.1402 15.0587 17.3133 14.8167C17.5 14.5558 17.5 14.0336 17.5 12.9893V3.24192C17.5 2.19763 17.5 1.67548 17.3133 1.41452C17.1402 1.17254 16.9169 1.03993 16.6216 1.00376C16.3031 0.964756 15.8168 1.22983 14.8443 1.75999C13.1772 2.66875 11.0164 3.61563 9.25 3.61563Z" stroke="#191919" stroke-width="2" stroke-linecap="round" stroke-linejoin="round"/>
</svg>
