<svg width="18" height="23" viewBox="0 0 18 23" fill="none" xmlns="http://www.w3.org/2000/svg">
    <path d="M15.0339 11.7457C15.0105 8.95639 17.3216 7.59682 17.4292 7.53607C16.1193 5.62985 14.0889 5.36821 13.3731 5.34953C11.6655 5.17201 10.014 6.36807 9.14385 6.36807C8.25963 6.36807 6.92158 5.36821 5.476 5.39627C3.61867 5.42428 1.883 6.49889 0.933301 8.16216C-1.03162 11.5588 0.432726 16.5485 2.3181 19.2957C3.25842 20.6413 4.35788 22.1411 5.79882 22.0896C7.20698 22.0336 7.73565 21.1926 9.43389 21.1926C11.1181 21.1926 11.614 22.0896 13.083 22.0569C14.5941 22.0336 15.5485 20.7067 16.4561 19.3518C17.5462 17.81 17.9813 16.2916 18 16.2168C17.9626 16.1934 15.062 15.0862 15.0339 11.7457ZM12.2596 3.54143C13.0175 2.59301 13.5368 1.30819 13.3918 0C12.2971 0.0466959 10.9216 0.756856 10.1356 1.68196C9.43858 2.49956 8.81165 3.83576 8.97543 5.09257C10.2011 5.18133 11.469 4.47117 12.2596 3.54143Z" fill="black"/>
</svg>
