<svg width="22" height="22" viewBox="0 0 22 22" fill="none" xmlns="http://www.w3.org/2000/svg">
    <path d="M15.3489 6.55556C15.3489 7.7343 14.8907 8.86476 14.0751 9.69825C13.2595 10.5317 12.1534 11 11 11C9.84661 11 8.74047 10.5317 7.9249 9.69825C7.10933 8.86476 6.65115 7.7343 6.65115 6.55556M1.90353 5.89043L1.14248 15.2238C0.978986 17.2288 0.89724 18.2313 1.22887 19.0047C1.52025 19.6841 2.02509 20.2448 2.66345 20.598C3.39002 21 4.37437 21 6.34307 21H15.6569C17.6256 21 18.61 21 19.3365 20.598C19.9749 20.2448 20.4798 19.6841 20.7711 19.0047C21.1028 18.2313 21.021 17.2288 20.8575 15.2238L20.0965 5.89043C19.9558 4.16528 19.8855 3.3027 19.5117 2.64984C19.1825 2.07493 18.6923 1.614 18.1044 1.3265C17.4367 1 16.5898 1 14.8959 1L7.10412 1C5.41023 1 4.56328 1 3.89562 1.32649C3.30769 1.614 2.81752 2.07493 2.48835 2.64984C2.11453 3.3027 2.0442 4.16528 1.90353 5.89043Z" stroke="white" stroke-width="2" stroke-linecap="round" stroke-linejoin="round"/>
</svg>
