<svg width="11" height="11" viewBox="0 0 11 11" fill="none" xmlns="http://www.w3.org/2000/svg">
    <path d="M4.98605 1.65291H2.95089C2.13675 1.65291 1.72968 1.65291 1.41872 1.81135C1.1452 1.95072 0.922811 2.17311 0.783442 2.44663C0.625 2.75759 0.625 3.16466 0.625 3.9788V8.04911C0.625 8.86325 0.625 9.27032 0.783442 9.58128C0.922811 9.8548 1.1452 10.0772 1.41872 10.2166C1.72968 10.375 2.13675 10.375 2.95089 10.375H7.0212C7.83534 10.375 8.24241 10.375 8.55337 10.2166C8.8269 10.0772 9.04928 9.8548 9.18865 9.58128C9.34709 9.27032 9.34709 8.86325 9.34709 8.04911V6.01395M3.53235 7.46764H4.34377C4.58081 7.46764 4.69933 7.46764 4.81086 7.44086C4.90975 7.41712 5.00428 7.37796 5.09099 7.32483C5.18879 7.26489 5.27259 7.18109 5.4402 7.01348L10.0739 2.37975C10.4754 1.97833 10.4754 1.32749 10.0739 0.926068C9.67251 0.524645 9.02167 0.524644 8.62025 0.926067L3.98651 5.5598C3.8189 5.72741 3.73509 5.81121 3.67516 5.90901C3.62203 5.99572 3.58287 6.09026 3.55913 6.18914C3.53235 6.30068 3.53235 6.41919 3.53235 6.65623V7.46764Z" stroke="#767676" stroke-linecap="round" stroke-linejoin="round"/>
</svg>
