<svg width="18" height="20" viewBox="0 0 18 20" fill="none" xmlns="http://www.w3.org/2000/svg">
    <g clip-path="url(#clip0_117_690)">
        <path d="M18 10.0436C18 9.37619 17.9494 8.70517 17.8414 8.04858H9.18051V11.8294H14.1402C13.9344 13.0488 13.2731 14.1275 12.3048 14.8129V17.2661H15.2637C17.0013 15.5561 18 13.0307 18 10.0436Z" fill="#4285F4"/>
        <path d="M9.1805 19.6363C11.657 19.6363 13.7455 18.7668 15.2671 17.266L12.3081 14.8129C11.4849 15.4117 10.4221 15.7508 9.18388 15.7508C6.78838 15.7508 4.75726 14.0228 4.02849 11.6995H0.975067V14.2284C2.53383 17.5438 5.70871 19.6363 9.1805 19.6363V19.6363Z" fill="#34A853"/>
        <path d="M4.02513 11.6995C3.6405 10.4801 3.6405 9.15971 4.02513 7.94033V5.41138H0.975079C-0.327264 8.18565 -0.327264 11.4542 0.975079 14.2284L4.02513 11.6995V11.6995Z" fill="#FBBC04"/>
        <path d="M9.1805 3.88535C10.4896 3.86371 11.7548 4.39042 12.7029 5.35727L15.3245 2.55414C13.6645 0.887408 11.4613 -0.0289319 9.1805 -7.0786e-05C5.70871 -7.0786e-05 2.53383 2.09236 0.975067 5.41138L4.02511 7.94034C4.75051 5.61341 6.785 3.88535 9.1805 3.88535V3.88535Z" fill="#EA4335"/>
    </g>
    <defs>
        <clipPath id="clip0_117_690">
            <rect width="18" height="19.6364" fill="white"/>
        </clipPath>
    </defs>
</svg>
