<svg width="119" height="26" viewBox="0 0 119 26" fill="none" xmlns="http://www.w3.org/2000/svg">
    <path d="M25.5746 10.3561C26.5614 8.09347 28.4109 6.96509 31.1232 6.96509V11.2305C29.6577 11.136 28.3577 11.4963 27.2291 12.3234C26.1241 13.1269 25.5687 14.462 25.5687 16.3348V25.5213C23.4177 25.5213 21.6746 23.7608 21.6746 21.5868V7.29001H22.5373C24.2096 7.29001 25.5627 8.66061 25.5627 10.3502L25.5746 10.3561Z" fill="white"/>
    <path d="M47.4795 9.8776V7.29C49.6304 7.29 51.3736 9.05051 51.3736 11.2246V25.5154H50.0736C48.6377 25.5154 47.4795 24.3398 47.4795 22.8924C46.0141 24.9601 43.9104 25.9939 41.1745 25.9939C38.6986 25.9939 36.5832 25.0723 34.8341 23.2232C33.0791 21.3741 32.2045 19.1055 32.2045 16.4057C32.2045 13.7058 33.0791 11.4372 34.8341 9.58812C36.5891 7.73899 38.7045 6.81738 41.1745 6.81738C43.9163 6.81738 46.0141 7.83942 47.4795 9.8776ZM37.7118 20.5943C38.7932 21.6872 40.1523 22.2366 41.7832 22.2366C43.4141 22.2366 44.7732 21.6872 45.8545 20.5943C46.9359 19.4777 47.4736 18.0776 47.4736 16.3998C47.4736 14.722 46.9359 13.3395 45.8545 12.2407C44.7732 11.1241 43.4141 10.5629 41.7832 10.5629C40.1523 10.5629 38.7932 11.1241 37.7118 12.2407C36.6304 13.3336 36.0927 14.722 36.0927 16.3998C36.0927 18.0776 36.6304 19.4481 37.7118 20.5943Z" fill="white"/>
    <path d="M64.8995 6.81738C66.9914 6.81738 68.6636 7.49087 69.9282 8.84374C71.1868 10.1907 71.8191 12.0221 71.8191 14.332V25.5272C69.6682 25.5272 67.925 23.7667 67.925 21.5927V14.7397C67.925 13.3809 67.5645 12.3352 66.8436 11.6027C66.1227 10.876 65.1359 10.5097 63.8891 10.5097C62.4709 10.5097 61.3541 10.9528 60.5386 11.839C59.7232 12.7251 59.3154 14.0307 59.3154 15.7558V25.5272C57.1645 25.5272 55.4214 23.7667 55.4214 21.5927V7.29H57.005C58.2814 7.29 59.3095 8.33567 59.3095 9.62356C60.5091 7.75081 62.3704 6.81738 64.8936 6.81738H64.8995Z" fill="white"/>
    <path d="M91.1418 9.87776V0C93.2927 0 95.0359 1.76051 95.0359 3.93456V25.5215H93.7359C92.3 25.5215 91.1418 24.3458 91.1418 22.8984C89.6764 24.9661 87.5727 26 84.8368 26C82.3609 26 80.2455 25.0784 78.4964 23.2293C76.7414 21.3801 75.8668 19.1116 75.8668 16.4117C75.8668 13.7119 76.7414 11.4433 78.4964 9.59418C80.2514 7.74506 82.3668 6.82345 84.8368 6.82345C87.5786 6.82345 89.6764 7.84549 91.1418 9.88366V9.87776ZM81.3741 20.5944C82.4555 21.6873 83.8146 22.2368 85.4455 22.2368C87.0764 22.2368 88.4355 21.6873 89.5168 20.5944C90.5982 19.4778 91.1359 18.0777 91.1359 16.3999C91.1359 14.7221 90.5982 13.3397 89.5168 12.2409C88.4355 11.1243 87.0764 10.5631 85.4455 10.5631C83.8146 10.5631 82.4555 11.1243 81.3741 12.2409C80.2927 13.3338 79.755 14.7221 79.755 16.3999C79.755 18.0777 80.2927 19.4483 81.3741 20.5944Z" fill="white"/>
    <path d="M99.0836 17.0616V0C101.37 0 103.226 1.87866 103.226 4.1945V16.8075C103.226 18.3849 103.687 19.6314 104.615 20.5471C105.536 21.4569 106.878 21.9118 108.633 21.9118C110.388 21.9118 111.723 21.4569 112.651 20.5471C113.573 19.6374 114.04 18.3908 114.04 16.8075V0C116.326 0 118.182 1.87866 118.182 4.1945V17.0616C118.182 19.7614 117.295 21.9355 115.517 23.5896C113.762 25.1965 111.469 25.9941 108.633 25.9941C105.796 25.9941 103.504 25.1906 101.749 23.5896C99.97 21.9355 99.0836 19.7614 99.0836 17.0616Z" fill="white"/>
    <path d="M17.4436 14.7103C16.8173 13.6764 15.9545 12.8671 14.8495 12.2881C16.5573 11.0002 17.4082 9.26335 17.4082 7.07748C17.4082 5.08657 16.6873 3.40877 15.2455 2.04408C13.8273 0.685299 12.0841 0 10.0218 0H0C0 2.17405 1.74318 3.93456 3.89409 3.93456H10.0218C10.9318 3.93456 11.7059 4.25949 12.3264 4.90343C12.9527 5.54738 13.2659 6.34492 13.2659 7.29016C13.2659 8.2354 12.9527 9.03295 12.3264 9.67689C11.7 10.3208 10.9318 10.6458 10.0218 10.6458H4.14227C1.85545 10.6458 0 12.5244 0 14.8403V25.5215H10.8136C12.9291 25.5215 14.7195 24.8303 16.185 23.4419C17.6505 22.0536 18.3832 20.3167 18.3832 18.2313C18.3832 16.9198 18.07 15.7441 17.4436 14.7103ZM13.2423 20.5412C12.5805 21.2324 11.7709 21.581 10.8077 21.581H7.67C5.72 21.581 4.13636 19.98 4.13636 18.0068C4.13636 16.0336 5.72 14.4326 7.67 14.4326H10.8077C11.7709 14.4326 12.5805 14.7812 13.2423 15.4724C13.9041 16.1636 14.235 17.0084 14.235 18.0068C14.235 19.0052 13.9041 19.85 13.2423 20.5412Z" fill="white"/>
</svg>
