<svg width="22" height="24" viewBox="0 0 22 24" fill="none" xmlns="http://www.w3.org/2000/svg">
    <path d="M21 23C21 21.2943 21 20.4415 20.7847 19.7475C20.2999 18.185 19.0494 16.9623 17.4514 16.4883C16.7417 16.2778 15.8695 16.2778 14.125 16.2778H7.87501C6.13055 16.2778 5.25832 16.2778 4.54857 16.4883C2.95057 16.9623 1.70005 18.185 1.2153 19.7475C1 20.4415 1 21.2943 1 23M16.625 6.5C16.625 9.53757 14.1066 12 11 12C7.8934 12 5.375 9.53757 5.375 6.5C5.375 3.46243 7.8934 1 11 1C14.1066 1 16.625 3.46243 16.625 6.5Z" stroke="white" stroke-width="2" stroke-linecap="round" stroke-linejoin="round"/>
</svg>
