<svg width="15" height="20" viewBox="0 0 15 20" fill="none" xmlns="http://www.w3.org/2000/svg">
    <path d="M13.4182 11.3156C12.9364 10.5203 12.2727 9.89775 11.4227 9.4524C12.7364 8.46171 13.3909 7.12565 13.3909 5.44422C13.3909 3.91275 12.8364 2.62213 11.7273 1.57237C10.6364 0.527153 9.29545 0 7.70909 0H0C0 1.67235 1.34091 3.02658 2.99545 3.02658H7.70909C8.40909 3.02658 9.00455 3.27653 9.48182 3.77187C9.96364 4.26721 10.2045 4.88071 10.2045 5.60782C10.2045 6.33492 9.96364 6.94842 9.48182 7.44376C9 7.9391 8.40909 8.18905 7.70909 8.18905H3.18636C1.42727 8.18905 0 9.63417 0 11.4156V19.6319H8.31818C9.94545 19.6319 11.3227 19.1002 12.45 18.0323C13.5773 16.9643 14.1409 15.6283 14.1409 14.0241C14.1409 13.0152 13.9 12.1109 13.4182 11.3156V11.3156ZM10.1864 15.801C9.67727 16.3327 9.05455 16.6008 8.31364 16.6008H5.9C4.4 16.6008 3.18182 15.3692 3.18182 13.8514C3.18182 12.3336 4.4 11.102 5.9 11.102H8.31364C9.05455 11.102 9.67727 11.3701 10.1864 11.9018C10.6955 12.4335 10.95 13.0834 10.95 13.8514C10.95 14.6194 10.6955 15.2693 10.1864 15.801Z" fill="white"/>
</svg>
